<svg width="30" height="30" viewBox="0 0 32 32" aria-hidden="true" focusable="false" fill="#a7aaad" xmlns="http://www.w3.org/2000/svg">
  <path fill="#a7aaad" stroke="#a7aaad" d="M16.338 21.101c-0.751 0-1.358 0.607-1.358 1.358s0.607 1.36 1.358 1.36c0.753 0 1.36-0.61 1.36-1.36-0-0.75-0.607-1.357-1.36-1.357zM12.26 21.101c-0.75 0-1.36 0.607-1.36 1.358s0.609 1.36 1.36 1.36c0.751 0 1.361-0.61 1.361-1.36 0-0.75-0.61-1.357-1.361-1.357zM23.819 8.182c-0.078 0.726-0.412 1.373-0.906 1.855-0.551 0.538-1.305 0.867-2.134 0.867h-0.681c-0.186 0-0.339 0.15-0.339 0.339v1.021h2.72c0 1.502-1.217 2.719-2.72 2.719v1.36c0 1.776-1.136 3.286-2.719 3.845-0.22 0.077-0.448 0.141-0.681 0.176-0.221 0.041-0.447 0.061-0.68 0.061h-3.419c-0.23 0-0.458-0.020-0.68-0.061-0.233-0.035-0.461-0.099-0.679-0.176-1.583-0.558-2.719-2.069-2.719-3.845 0-2.020 1.47-3.699 3.398-4.025 0.223-0.036 0.45-0.055 0.68-0.055h3.748v2.719h-3.748c-0.749 0-1.36 0.611-1.36 1.36s0.61 1.36 1.36 1.36h3.419c0.749 0 1.36-0.611 1.36-1.36v-5.1c0-0.861 0.355-1.636 0.927-2.194 0.551-0.535 1.305-0.866 2.132-0.866h3.721z"></path>
</svg>